<svg width="32" height="32" viewBox="0 0 32 32" fill="none" xmlns="http://www.w3.org/2000/svg">
<rect width="32" height="32" rx="16" fill="#0001E5"/>
<path fill-rule="evenodd" clip-rule="evenodd" d="M23.9438 12.7011C23.8831 11.4194 23.5904 10.2841 22.6516 9.34866C21.7165 8.41325 20.5814 8.1205 19.2999 8.05623C17.9793 7.98126 14.0207 7.98126 12.7001 8.05623C11.4222 8.11693 10.2871 8.40968 9.34835 9.34509C8.40959 10.2805 8.12047 11.4158 8.05622 12.6975C7.98126 14.0185 7.98126 17.9779 8.05622 19.2989C8.1169 20.5806 8.40959 21.7159 9.34835 22.6513C10.2871 23.5867 11.4186 23.8795 12.7001 23.9438C14.0207 24.0187 17.9793 24.0187 19.2999 23.9438C20.5814 23.8831 21.7165 23.5903 22.6516 22.6513C23.5868 21.7159 23.8795 20.5806 23.9438 19.2989C24.0187 17.9779 24.0187 14.0221 23.9438 12.7011ZM20.2708 12.6868C20.7991 12.6868 21.2274 12.262 21.2274 11.73C21.2274 11.2016 20.7991 10.7732 20.2708 10.7732C19.7425 10.7732 19.3142 11.2016 19.3142 11.73C19.3142 12.2584 19.739 12.6868 20.2708 12.6868ZM16.0018 11.8978C13.7316 11.8978 11.9005 13.7293 11.9005 16C11.9005 18.2707 13.7316 20.1022 16.0018 20.1022C18.2719 20.1022 20.1031 18.2707 20.1031 16C20.1031 13.7293 18.2719 11.8978 16.0018 11.8978ZM16.0018 18.667C14.5347 18.667 13.3354 17.471 13.3354 16C13.3354 14.5291 14.5312 13.333 16.0018 13.333C17.4724 13.333 18.6682 14.5291 18.6682 16C18.6682 17.471 17.4688 18.667 16.0018 18.667ZM20.717 22.2372C21.4202 21.9551 21.9592 21.416 22.2376 20.7163C22.5958 19.816 22.5759 17.8466 22.5629 16.57C22.5608 16.3583 22.5588 16.1656 22.5588 16C22.5588 15.8344 22.5608 15.6417 22.5629 15.43C22.5759 14.1541 22.5958 12.1871 22.2376 11.2837C21.9556 10.5804 21.4166 10.0413 20.717 9.76279C19.8141 9.40646 17.8356 9.42544 16.5597 9.43768C16.3527 9.43967 16.1642 9.44147 16.0018 9.44147C15.8362 9.44147 15.6436 9.43952 15.4319 9.43738C14.1563 9.42445 12.1897 9.40452 11.2866 9.76279C10.5834 10.0448 10.0444 10.5839 9.76598 11.2837C9.40972 12.1868 9.4287 14.1657 9.44094 15.4419C9.44292 15.649 9.44473 15.8375 9.44473 16C9.44473 16.1656 9.44278 16.3583 9.44063 16.57C9.42771 17.8459 9.40778 19.8129 9.76598 20.7163C10.048 21.4196 10.5869 21.9587 11.2866 22.2372C12.1895 22.5935 14.1679 22.5745 15.4439 22.5623C15.6509 22.5603 15.8394 22.5585 16.0018 22.5585C16.1674 22.5585 16.36 22.5605 16.5716 22.5626C17.8473 22.5755 19.8139 22.5955 20.717 22.2372Z" fill="white"/>
</svg>
