<svg width="52" height="24" viewBox="0 0 52 24" fill="none" xmlns="http://www.w3.org/2000/svg">
<path d="M48 6L37 17L32 12" stroke="#0001E5" stroke-width="1.5" stroke-linecap="round" stroke-linejoin="round"/>
<path d="M38 22C43.5228 22 48 17.5228 48 12C48 6.47715 43.5228 2 38 2C32.4772 2 28 6.47715 28 12C28 17.5228 32.4772 22 38 22Z" stroke="#0001E5" stroke-width="1.5" stroke-linecap="round" stroke-linejoin="round"/>
<path d="M12 22C17.5228 22 22 17.5228 22 12C22 6.47715 17.5228 2 12 2C6.47715 2 2 6.47715 2 12C2 17.5228 6.47715 22 12 22Z" stroke="#0001E5" stroke-width="1.5" stroke-linecap="round" stroke-linejoin="round"/>
</svg>
