<svg width="32" height="32" viewBox="0 0 32 32" fill="none" xmlns="http://www.w3.org/2000/svg">
<path fill-rule="evenodd" clip-rule="evenodd" d="M15.9985 17.7708L26.1 27.8724C26.2673 28.0397 26.5387 28.0397 26.7061 27.8724L27.9183 26.6602C28.0856 26.4928 28.0856 26.2214 27.9183 26.0541L17.8167 15.9526L27.9182 5.85103C28.0856 5.68367 28.0856 5.41231 27.9182 5.24494L26.7061 4.03276C26.5387 3.86539 26.2673 3.86539 26.1 4.03276L15.9985 14.1343L5.89693 4.03275C5.72956 3.86538 5.4582 3.86538 5.29083 4.03275L4.07865 5.24494C3.91128 5.4123 3.91128 5.68366 4.07865 5.85103L14.1802 15.9526L4.07865 26.0541C3.91128 26.2215 3.91128 26.4928 4.07865 26.6602L5.29083 27.8724C5.4582 28.0397 5.72956 28.0397 5.89693 27.8724L15.9985 17.7708Z" fill="white"/>
</svg>
