<svg width="136" height="56" viewBox="0 0 136 56" fill="none" xmlns="http://www.w3.org/2000/svg">
<path d="M66.2337 19.6809C66.5246 14.5855 64.3645 10.4321 60.9317 6.8903C57.2858 3.127 52.6482 1.32054 47.5676 0.474338C46.4785 0.292536 45.3546 0.35534 44.2919 0C42.4739 0 40.6575 0 38.8395 0C38.0775 0.314022 37.2561 0.244606 36.4645 0.36691C28.1231 1.65605 21.2493 5.70363 15.3952 11.6271C11.3625 15.7077 8.15457 20.3965 5.51182 25.4738C4.09212 28.1992 2.91371 31.0287 1.98486 34.0317C2.84429 34.0317 3.64257 33.9871 4.43258 34.0466C5.00774 34.0895 5.22259 33.8763 5.41431 33.3491C8.29174 25.4225 12.6286 18.4083 18.7669 12.5989C27.0074 4.79958 36.7256 1.59159 48.0006 3.64596C52.5242 4.47068 56.542 6.33828 59.5814 9.91648C62.4209 13.26 63.8604 17.0183 62.9795 21.4973C61.7019 27.9975 55.8132 32.3013 49.3625 31.2138C44.9959 30.4766 41.9665 27.9 40.4459 23.7665C38.9171 19.6164 39.7154 15.7705 42.4739 12.3196C42.8986 11.7874 43.8175 11.3858 43.7514 10.8205C43.6804 10.2222 42.8936 9.72972 42.4904 9.14299C42.1119 8.59263 41.8408 8.62238 41.3797 9.07027C37.7635 12.5906 36.1934 16.8398 36.8512 21.8477C37.8809 29.68 45.2356 35.5274 53.4547 34.2664C61.0408 33.1029 65.8255 26.8406 66.2337 19.6809Z" fill="#0A1D7B"/>
<path d="M7.81728 41.9751C5.17288 41.7817 2.73839 43.4576 1.59138 46.2243C1.34182 46.8275 1.35173 47.5068 0.998047 48.0704C0.998047 48.6208 0.998047 49.1711 0.998047 49.7232C1.21125 50.4173 1.37322 51.1329 1.64758 51.8007C2.47395 53.812 3.88374 55.2119 6.03231 55.7871C6.18437 55.8284 6.36782 55.8185 6.45211 56.0003C7.00248 56.0003 7.55449 56.0003 8.10486 56.0003C8.59076 55.84 9.08989 55.7111 9.55927 55.5127C12.6416 54.2087 14.3043 50.733 13.5242 47.2556C12.878 44.3716 10.4997 42.1718 7.81728 41.9751ZM10.703 53.5377C8.17923 55.7358 4.92167 55.1921 3.0739 52.3328C1.67733 50.1727 1.89879 46.8705 3.57137 44.9219C6.21907 41.8362 10.8071 42.7436 12.2219 46.6375C12.3524 46.9978 12.4731 47.3696 12.5342 47.7448C12.6003 48.1497 12.5921 48.5662 12.6152 48.9778C12.6565 50.7842 12.0582 52.356 10.703 53.5377Z" fill="#0A1D7B"/>
<path d="M102.88 43.1267C105.187 42.7796 107.257 43.9035 108.346 46.0934C108.419 46.2405 108.466 46.4074 108.564 46.5363C108.833 46.895 109.245 46.7892 109.544 46.6818C109.888 46.5578 109.609 46.2521 109.532 46.0521C108.111 42.2673 103.669 40.7451 100.385 42.9763C97.7732 44.7497 97.1435 47.4288 97.5749 50.3294C97.9897 53.1192 99.5234 55.1356 102.434 55.8231C102.568 55.8545 102.707 55.8644 102.786 56C103.393 56 103.997 56 104.604 56C104.698 55.8182 104.88 55.8611 105.035 55.8248C107.286 55.3075 108.741 53.901 109.566 51.7822C109.718 51.3905 109.708 51.2186 109.192 51.1855C108.632 51.1508 108.511 51.4863 108.323 51.8665C106.842 54.848 103.26 55.8099 100.756 53.7969C98.7814 52.2102 98.236 50.0269 98.6558 47.5693C99.0293 45.3811 100.88 43.4275 102.88 43.1267Z" fill="#0A1D7B"/>
<path d="M133.011 48.8126C132.181 48.6176 131.345 48.487 130.497 48.3961C129.299 48.2688 128.077 48.2837 126.919 47.892C126.033 47.5912 125.339 47.0822 125.264 46.0558C125.19 45.0261 125.63 44.2444 126.516 43.7205C127.806 42.9586 129.231 42.79 130.664 43.0048C131.98 43.2032 133.371 43.385 134.022 44.8691C134.173 45.2113 134.576 45.117 134.834 45.0096C135.135 44.884 134.903 44.6212 134.834 44.4427C134.563 43.7552 134.128 43.1701 133.449 42.8693C130.952 41.7702 128.426 41.6992 125.977 42.9569C124.706 43.6097 124.2 44.8212 124.331 46.2178C124.471 47.7168 125.266 48.5085 126.835 48.8886C127.154 48.9663 127.479 49.0258 127.806 49.0638C129.305 49.239 130.813 49.3514 132.3 49.5844C133.71 49.8059 134.284 50.4571 134.465 51.7892C134.599 52.766 134.009 53.7824 132.953 54.3129C131.742 54.9228 130.436 55.1277 129.104 54.9658C127.737 54.7988 126.334 54.5823 125.471 53.3246C125.091 52.7709 124.689 52.804 124.141 52.9461C124.296 53.4998 124.557 53.903 124.911 54.265C125.894 55.2732 127.177 55.5442 128.487 55.7723C131.798 56.3491 134.067 55.3062 135.505 52.528C135.505 52.1429 135.505 51.7578 135.505 51.371C135.1 50.105 134.391 49.1382 133.011 48.8126Z" fill="#0A1D7B"/>
<path d="M101.404 34.0709C102.133 33.9833 102.282 33.8362 102.28 33.1388C102.257 23.1446 102.264 13.1505 102.264 3.1563C102.264 2.89021 102.264 2.62412 102.264 2.33984C100.16 2.97615 99.2275 4.18927 99.2275 6.23371C99.2275 13.5025 99.2292 20.7713 99.2226 28.0384C99.2226 28.3111 99.3019 28.6119 99.092 28.9144C98.9267 28.6797 98.7962 28.5078 98.6788 28.3276C93.5867 20.5581 88.4334 12.8282 83.4504 4.9892C82.3447 3.25051 81.2142 2.3729 79.1434 2.68361C78.4657 2.78443 78.3104 2.91169 78.312 3.57445C78.3335 13.6231 78.3269 23.6718 78.3269 33.7222C78.3269 33.9618 78.3269 34.2015 78.3269 34.461C80.5845 33.5982 81.3696 32.4397 81.3531 30.2812C81.2952 22.7678 81.3316 15.2544 81.3316 7.74102C81.3845 7.71623 81.4357 7.69144 81.4886 7.6683C81.6985 7.97901 81.9101 8.28808 82.115 8.60045C87.2104 16.3684 92.3653 24.0982 97.3484 31.9389C98.4045 33.5949 99.4936 34.3023 101.404 34.0709Z" fill="#0A1D7B"/>
<path d="M134.543 34.0319C134.778 34.0319 135.014 34.0319 135.277 34.0319C134.328 31.7131 133.234 30.966 130.892 31.0074C126.626 31.0817 122.359 31.0156 118.093 31.0421C117.495 31.0454 117.303 30.9264 117.31 30.2868C117.346 27.0391 117.345 23.7915 117.31 20.5455C117.303 19.924 117.462 19.7786 118.077 19.7836C122.151 19.8133 126.225 19.8017 130.299 19.7968C131.01 19.7951 131.958 20.0348 132.368 19.6745C132.847 19.253 132.442 18.2763 132.538 17.5507C132.628 16.8731 132.347 16.7475 131.722 16.7508C127.208 16.7756 122.693 16.7508 118.179 16.7805C117.526 16.7855 117.297 16.6731 117.308 15.9508C117.355 12.8139 117.35 9.67702 117.312 6.54011C117.303 5.87736 117.497 5.74183 118.126 5.74348C123.823 5.76828 129.522 5.75836 135.285 5.75836C134.307 3.38006 133.35 2.72392 130.957 2.72392C125.727 2.72392 120.496 2.73714 115.267 2.70904C114.548 2.70574 114.302 2.84126 114.305 3.63127C114.337 13.4833 114.332 23.3353 114.31 33.1873C114.309 33.8468 114.424 34.0567 115.14 34.0534C121.605 34.017 128.074 34.0319 134.543 34.0319Z" fill="#0A1D7B"/>
<path d="M47.2107 14.9373C47.0553 14.3572 46.3744 13.9374 46.0207 13.3854C45.6059 12.7391 45.2886 12.8945 44.8456 13.3391C42.2574 15.9306 41.4658 19.9236 42.8871 23.3365C44.3002 26.7296 47.6057 28.9294 51.3045 28.936C52.9986 28.9393 54.6497 28.4766 56.0843 27.5973C57.2462 26.885 57.2445 26.885 56.3983 25.8718C56.1868 25.619 55.9521 25.381 55.7703 25.1066C55.4414 24.6108 55.1769 24.5348 54.6117 24.9116C52.1739 26.5379 49.0419 26.1677 46.9843 24.0951C44.9332 22.0292 44.639 18.8907 46.2174 16.4413C46.5513 15.924 47.3776 15.5571 47.2107 14.9373Z" fill="#0A1D7B"/>
<path d="M2.40795 5.76817C8.1876 5.74834 13.9673 5.7566 19.7469 5.75495C19.9899 5.75495 20.2378 5.79131 20.4609 5.63099C21.8889 4.61786 23.3846 3.7072 24.8605 2.72051C18.5619 2.72051 12.2616 2.75026 5.96301 2.70233C4.09044 2.6891 2.81948 3.41631 2.0179 5.0922C1.76503 5.62108 1.7485 5.76982 2.40795 5.76817Z" fill="#0A1D7B"/>
<path d="M22.0673 31.0273C18.0527 31.0273 14.0399 31.0273 10.0253 31.0273C7.42557 31.0273 7.44044 31.0323 6.6934 33.5494C6.54961 34.0353 6.73472 34.0353 7.09667 34.0353C13.4746 34.0304 19.8509 34.032 26.3016 34.032C25.3347 31.6637 24.4158 31.0273 22.0673 31.0273Z" fill="#0A1D7B"/>
<path d="M37.8776 42.2902C36.5008 42.277 35.1257 42.2869 33.749 42.2869C32.3177 42.2869 30.8864 42.3067 29.4552 42.277C28.9263 42.2654 28.7428 42.4142 28.7461 42.9662C28.7676 46.9559 28.7561 50.9456 28.7577 54.937C28.7577 55.2841 28.6635 55.6642 29.2502 55.6659C29.8171 55.6675 29.7675 55.3171 29.7675 54.9519C29.7659 53.3553 29.7956 51.7588 29.7527 50.1639C29.7361 49.5408 29.9262 49.3706 30.5427 49.3788C32.992 49.4135 35.4414 49.397 37.8924 49.3921C39.408 49.3887 40.4294 48.6053 40.874 47.1542C41.0641 46.5311 41.0161 45.8981 40.9864 45.2718C40.9054 43.5347 39.6245 42.3084 37.8776 42.2902ZM39.8014 47.2088C39.4692 47.9889 38.8395 48.45 37.9238 48.4368C36.6859 48.4186 35.448 48.4318 34.2118 48.4318C32.9474 48.4318 31.6814 48.4136 30.4171 48.4417C29.9064 48.4533 29.7494 48.2682 29.7593 47.7707C29.7857 46.4783 29.789 45.1858 29.7576 43.895C29.7444 43.3612 29.9708 43.2571 30.4435 43.2604C32.9177 43.2769 35.3935 43.2637 37.8693 43.2703C38.7535 43.2719 39.3997 43.695 39.765 44.4884C40.1749 45.3792 40.1798 46.3229 39.8014 47.2088Z" fill="#0A1D7B"/>
<path d="M65.9875 42.2842C62.3828 42.2908 58.7782 42.2891 55.1735 42.2842C54.8083 42.2842 54.5339 42.3024 54.5422 42.7949C54.5504 43.3155 54.8793 43.2676 55.2132 43.2676C56.5337 43.2676 57.8559 43.3072 59.1748 43.251C59.8872 43.2213 60.0409 43.4775 60.0343 44.1435C60.0045 47.7465 60.021 51.3511 60.0194 54.9541C60.0194 55.3194 59.9698 55.6582 60.5367 55.6714C61.1102 55.6846 61.1416 55.3888 61.1383 54.9525C61.1251 53.1378 61.1333 51.3214 61.1333 49.5067C61.1333 47.7184 61.1614 45.9301 61.1185 44.1435C61.1019 43.4791 61.2589 43.2213 61.9746 43.2527C63.2935 43.3089 64.6157 43.2692 65.9362 43.2692C66.2668 43.2692 66.6006 43.3271 66.6106 42.8015C66.6188 42.3106 66.3577 42.2842 65.9875 42.2842Z" fill="#0A1D7B"/>
<path d="M82.4488 48.9777C82.4488 46.9696 82.4439 44.9615 82.4538 42.9534C82.4554 42.5567 82.4389 42.2708 81.9018 42.2725C81.3828 42.2741 81.3315 42.527 81.3315 42.9402C81.3398 46.9564 81.3398 50.9709 81.3332 54.987C81.3332 55.3854 81.353 55.6696 81.8869 55.6696C82.4075 55.6696 82.4571 55.4118 82.4538 55.0003C82.4422 52.9938 82.4488 50.9857 82.4488 48.9777Z" fill="#0A1D7B"/>
</svg>
