<svg width="135" height="56" viewBox="0 0 135 56" fill="none" xmlns="http://www.w3.org/2000/svg">
<path d="M65.2372 19.6809C65.528 14.5855 63.3679 10.4321 59.9351 6.8903C56.2892 3.127 51.6516 1.32054 46.571 0.474338C45.4819 0.292536 44.358 0.35534 43.2953 0C41.4773 0 39.6609 0 37.8429 0C37.081 0.314022 36.2595 0.244606 35.4679 0.36691C27.1265 1.65605 20.2527 5.70363 14.3987 11.6271C10.366 15.7077 7.15798 20.3965 4.51524 25.4738C3.09553 28.1992 1.91712 31.0287 0.988281 34.0317C1.84771 34.0317 2.64599 33.9871 3.436 34.0466C4.01115 34.0895 4.22601 33.8763 4.41773 33.3491C7.29516 25.4225 11.632 18.4083 17.7703 12.5989C26.0109 4.79958 35.729 1.59159 47.0041 3.64596C51.5276 4.47068 55.5455 6.33828 58.5849 9.91648C61.4243 13.26 62.8638 17.0183 61.9829 21.4973C60.7053 27.9975 54.8166 32.3013 48.3659 31.2138C43.9994 30.4766 40.9699 27.9 39.4493 23.7665C37.9206 19.6164 38.7188 15.7705 41.4773 12.3196C41.902 11.7874 42.821 11.3858 42.7548 10.8205C42.6838 10.2222 41.8971 9.72972 41.4938 9.14299C41.1153 8.59263 40.8443 8.62238 40.3832 9.07027C36.7669 12.5906 35.1968 16.8398 35.8546 21.8477C36.8843 29.68 44.239 35.5274 52.4581 34.2664C60.0442 33.1029 64.8289 26.8406 65.2372 19.6809Z" fill="white"/>
<path d="M6.81923 41.9746C4.17484 41.7812 1.74034 43.4571 0.593336 46.2238C0.343771 46.827 0.353688 47.5063 0 48.0699C0 48.6203 0 49.1706 0 49.7227C0.213204 50.4168 0.375174 51.1325 0.649529 51.8002C1.4759 53.8116 2.8857 55.2114 5.03427 55.7866C5.18632 55.8279 5.36977 55.818 5.45406 55.9998C6.00443 55.9998 6.55645 55.9998 7.10681 55.9998C7.59272 55.8395 8.09185 55.7106 8.56123 55.5122C11.6436 54.2082 13.3063 50.7325 12.5262 47.2551C11.8799 44.3711 9.50164 42.1713 6.81923 41.9746ZM9.70493 53.5372C7.18118 55.7354 3.92362 55.1916 2.07585 52.3324C0.679279 50.1722 0.900747 46.87 2.57333 44.9214C5.22103 41.8358 9.80905 42.7431 11.2238 46.637C11.3544 46.9973 11.475 47.3692 11.5362 47.7443C11.6023 48.1492 11.594 48.5657 11.6172 48.9773C11.6585 50.7837 11.0602 52.3555 9.70493 53.5372Z" fill="white"/>
<path d="M101.883 43.1267C104.19 42.7796 106.26 43.9035 107.349 46.0934C107.421 46.2405 107.469 46.4074 107.567 46.5363C107.836 46.895 108.248 46.7892 108.547 46.6818C108.891 46.5578 108.611 46.2521 108.535 46.0521C107.114 42.2673 102.671 40.7451 99.3875 42.9763C96.7761 44.7497 96.1464 47.4288 96.5778 50.3294C96.9926 53.1192 98.5264 55.1356 101.437 55.8231C101.571 55.8545 101.71 55.8644 101.789 56C102.395 56 103 56 103.607 56C103.701 55.8182 103.883 55.8611 104.038 55.8248C106.289 55.3075 107.744 53.901 108.568 51.7822C108.721 51.3905 108.711 51.2186 108.195 51.1855C107.635 51.1508 107.514 51.4863 107.326 51.8665C105.845 54.848 102.263 55.8099 99.7593 53.7969C97.7843 52.2102 97.2389 50.0269 97.6587 47.5693C98.0322 45.3811 99.8833 43.4275 101.883 43.1267Z" fill="white"/>
<path d="M132.015 48.8121C131.185 48.6171 130.349 48.4865 129.501 48.3956C128.303 48.2683 127.081 48.2832 125.923 47.8915C125.037 47.5907 124.343 47.0817 124.268 46.0553C124.194 45.0257 124.634 44.2439 125.52 43.72C126.81 42.9581 128.235 42.7895 129.668 43.0044C130.984 43.2027 132.375 43.3845 133.026 44.8687C133.177 45.2108 133.58 45.1166 133.838 45.0091C134.139 44.8835 133.907 44.6207 133.838 44.4422C133.567 43.7547 133.132 43.1696 132.453 42.8688C129.956 41.7698 127.43 41.6987 124.981 42.9564C123.71 43.6093 123.204 44.8207 123.335 46.2173C123.475 47.7163 124.27 48.508 125.839 48.8881C126.158 48.9658 126.483 49.0253 126.81 49.0633C128.309 49.2385 129.817 49.3509 131.304 49.5839C132.714 49.8054 133.287 50.4566 133.469 51.7887C133.603 52.7655 133.013 53.7819 131.957 54.3124C130.746 54.9223 129.44 55.1272 128.108 54.9653C126.741 54.7983 125.338 54.5818 124.475 53.3241C124.095 52.7704 123.693 52.8035 123.145 52.9456C123.3 53.4993 123.561 53.9026 123.915 54.2645C124.898 55.2727 126.181 55.5437 127.491 55.7718C130.802 56.3486 133.071 55.3057 134.509 52.5275C134.509 52.1424 134.509 51.7573 134.509 51.3706C134.104 50.1046 133.395 49.1377 132.015 48.8121Z" fill="white"/>
<path d="M100.405 34.0714C101.134 33.9838 101.282 33.8367 101.281 33.1393C101.257 23.1451 101.264 13.1509 101.264 3.15679C101.264 2.8907 101.264 2.6246 101.264 2.34033C99.1602 2.97664 98.228 4.18976 98.228 6.2342C98.228 13.503 98.2297 20.7718 98.223 28.0389C98.223 28.3116 98.3024 28.6124 98.0925 28.9148C97.9272 28.6801 97.7966 28.5083 97.6793 28.3281C92.5872 20.5586 87.4339 12.8287 82.4509 4.98968C81.3452 3.251 80.2147 2.37339 78.1438 2.6841C77.4662 2.78492 77.3109 2.91218 77.3125 3.57493C77.334 13.6236 77.3274 23.6723 77.3274 33.7227C77.3274 33.9623 77.3274 34.202 77.3274 34.4615C79.585 33.5987 80.3701 32.4401 80.3536 30.2817C80.2957 22.7683 80.3321 15.2549 80.3321 7.74151C80.385 7.71672 80.4362 7.69193 80.4891 7.66879C80.699 7.9795 80.9105 8.28857 81.1155 8.60094C86.2109 16.3688 91.3658 24.0987 96.3488 31.9394C97.4049 33.5954 98.4941 34.3028 100.405 34.0714Z" fill="white"/>
<path d="M133.547 34.0319C133.781 34.0319 134.018 34.0319 134.28 34.0319C133.332 31.7131 132.238 30.966 129.896 31.0074C125.63 31.0817 121.362 31.0156 117.097 31.0421C116.498 31.0454 116.307 30.9264 116.313 30.2868C116.35 27.0391 116.348 23.7915 116.313 20.5455C116.307 19.924 116.465 19.7786 117.08 19.7836C121.154 19.8133 125.228 19.8017 129.302 19.7968C130.013 19.7951 130.962 20.0348 131.372 19.6745C131.851 19.253 131.446 18.2763 131.542 17.5507C131.631 16.8731 131.35 16.7475 130.725 16.7508C126.212 16.7756 121.696 16.7508 117.183 16.7805C116.53 16.7855 116.3 16.6731 116.312 15.9508C116.358 12.8139 116.353 9.67702 116.315 6.54011C116.307 5.87736 116.5 5.74183 117.13 5.74348C122.827 5.76828 128.525 5.75836 134.289 5.75836C133.31 3.38006 132.353 2.72392 129.96 2.72392C124.731 2.72392 119.5 2.73714 114.271 2.70904C113.552 2.70574 113.305 2.84126 113.309 3.63127C113.34 13.4833 113.335 23.3353 113.314 33.1873C113.312 33.8468 113.428 34.0567 114.143 34.0534C120.609 34.017 127.078 34.0319 133.547 34.0319Z" fill="white"/>
<path d="M46.2141 14.9378C46.0588 14.3577 45.3778 13.9379 45.0241 13.3858C44.6093 12.7396 44.292 12.895 43.849 13.3396C41.2608 15.9311 40.4692 19.9241 41.8905 23.337C43.3036 26.7301 46.6091 28.9299 50.308 28.9365C52.002 28.9398 53.6531 28.4771 55.0877 27.5978C56.2496 26.8855 56.2479 26.8855 55.4017 25.8723C55.1902 25.6195 54.9555 25.3815 54.7737 25.1071C54.4448 24.6113 54.1803 24.5353 53.6151 24.9121C51.1773 26.5384 48.0454 26.1682 45.9877 24.0956C43.9366 22.0297 43.6424 18.8911 45.2208 16.4418C45.5547 15.9245 46.381 15.5576 46.2141 14.9378Z" fill="white"/>
<path d="M1.41136 5.76817C7.19102 5.74834 12.9707 5.7566 18.7503 5.75495C18.9933 5.75495 19.2412 5.79131 19.4643 5.63099C20.8923 4.61786 22.388 3.7072 23.8639 2.72051C17.5653 2.72051 11.265 2.75026 4.96642 2.70233C3.09386 2.6891 1.8229 3.41631 1.02132 5.0922C0.768446 5.62108 0.751919 5.76982 1.41136 5.76817Z" fill="white"/>
<path d="M21.0712 31.0269C17.0566 31.0269 13.0438 31.0269 9.02924 31.0269C6.42947 31.0269 6.44435 31.0318 5.69731 33.5489C5.55352 34.0349 5.73863 34.0349 6.10058 34.0349C12.4785 34.0299 18.8548 34.0315 25.3055 34.0315C24.3386 31.6632 23.4197 31.0269 21.0712 31.0269Z" fill="white"/>
<path d="M36.8776 42.2907C35.5008 42.2775 34.1257 42.2874 32.749 42.2874C31.3177 42.2874 29.8864 42.3072 28.4552 42.2775C27.9263 42.2659 27.7428 42.4146 27.7461 42.9667C27.7676 46.9564 27.7561 50.9461 27.7577 54.9375C27.7577 55.2846 27.6635 55.6647 28.2502 55.6664C28.8171 55.668 28.7675 55.3176 28.7675 54.9524C28.7659 53.3558 28.7956 51.7593 28.7527 50.1644C28.7361 49.5413 28.9262 49.3711 29.5427 49.3793C31.992 49.414 34.4414 49.3975 36.8924 49.3925C38.408 49.3892 39.4294 48.6058 39.874 47.1547C40.0641 46.5316 40.0161 45.8986 39.9864 45.2722C39.9054 43.5352 38.6245 42.3089 36.8776 42.2907ZM38.8014 47.2093C38.4692 47.9894 37.8395 48.4505 36.9238 48.4373C35.6859 48.4191 34.448 48.4323 33.2118 48.4323C31.9474 48.4323 30.6814 48.4141 29.4171 48.4422C28.9064 48.4538 28.7494 48.2687 28.7593 47.7712C28.7857 46.4788 28.789 45.1863 28.7576 43.8955C28.7444 43.3617 28.9708 43.2575 29.4435 43.2609C31.9177 43.2774 34.3935 43.2642 36.8693 43.2708C37.7535 43.2724 38.3997 43.6955 38.765 44.4888C39.1749 45.3797 39.1798 46.3234 38.8014 47.2093Z" fill="white"/>
<path d="M64.9884 42.2837C61.3838 42.2903 57.7791 42.2886 54.1745 42.2837C53.8092 42.2837 53.5349 42.3019 53.5432 42.7944C53.5514 43.315 53.8803 43.2671 54.2142 43.2671C55.5347 43.2671 56.8569 43.3067 58.1758 43.2505C58.8881 43.2208 59.0418 43.477 59.0352 44.143C59.0055 47.746 59.022 51.3506 59.0204 54.9536C59.0204 55.3189 58.9708 55.6577 59.5377 55.6709C60.1112 55.6841 60.1426 55.3883 60.1393 54.952C60.1261 53.1373 60.1343 51.3209 60.1343 49.5062C60.1343 47.7179 60.1624 45.9296 60.1194 44.143C60.1029 43.4786 60.2599 43.2208 60.9756 43.2522C62.2945 43.3084 63.6167 43.2687 64.9372 43.2687C65.2678 43.2687 65.6016 43.3266 65.6115 42.801C65.6198 42.3101 65.3587 42.2837 64.9884 42.2837Z" fill="white"/>
<path d="M81.4493 48.9777C81.4493 46.9696 81.4444 44.9615 81.4543 42.9534C81.4559 42.5567 81.4394 42.2708 80.9022 42.2725C80.3833 42.2741 80.332 42.527 80.332 42.9402C80.3403 46.9564 80.3403 50.9709 80.3337 54.987C80.3337 55.3854 80.3535 55.6696 80.8874 55.6696C81.408 55.6696 81.4576 55.4118 81.4543 55.0003C81.4427 52.9938 81.4493 50.9857 81.4493 48.9777Z" fill="white"/>
</svg>
