<svg width="29" height="29" viewBox="0 0 29 29" fill="none" xmlns="http://www.w3.org/2000/svg">
<path d="M22.5368 15.5208C23.1827 15.5208 23.7064 14.9972 23.7064 14.3512C23.7064 13.7053 23.1827 13.1816 22.5368 13.1816C21.8908 13.1816 21.3672 13.7053 21.3672 14.3512C21.3672 14.9972 21.8908 15.5208 22.5368 15.5208Z" stroke="#0001E5" stroke-width="2.5" stroke-linecap="round" stroke-linejoin="round"/>
<path d="M14.3532 15.5208C14.9991 15.5208 15.5228 14.9972 15.5228 14.3512C15.5228 13.7053 14.9991 13.1816 14.3532 13.1816C13.7072 13.1816 13.1836 13.7053 13.1836 14.3512C13.1836 14.9972 13.7072 15.5208 14.3532 15.5208Z" stroke="#0001E5" stroke-width="2.5" stroke-linecap="round" stroke-linejoin="round"/>
<path d="M6.16568 15.5208C6.81163 15.5208 7.33527 14.9972 7.33527 14.3512C7.33527 13.7053 6.81163 13.1816 6.16568 13.1816C5.51974 13.1816 4.99609 13.7053 4.99609 14.3512C4.99609 14.9972 5.51974 15.5208 6.16568 15.5208Z" stroke="#0001E5" stroke-width="2.5" stroke-linecap="round" stroke-linejoin="round"/>
</svg>
