<svg width="29" height="29" viewBox="0 0 29 29" fill="none" xmlns="http://www.w3.org/2000/svg">
<path d="M22.5368 15.2049C23.1827 15.2049 23.7064 14.6813 23.7064 14.0353C23.7064 13.3894 23.1827 12.8657 22.5368 12.8657C21.8908 12.8657 21.3672 13.3894 21.3672 14.0353C21.3672 14.6813 21.8908 15.2049 22.5368 15.2049Z" stroke="#AEBDDE" stroke-width="2.5" stroke-linecap="round" stroke-linejoin="round"/>
<path d="M14.3532 15.2049C14.9991 15.2049 15.5228 14.6813 15.5228 14.0353C15.5228 13.3894 14.9991 12.8657 14.3532 12.8657C13.7072 12.8657 13.1836 13.3894 13.1836 14.0353C13.1836 14.6813 13.7072 15.2049 14.3532 15.2049Z" stroke="#AEBDDE" stroke-width="2.5" stroke-linecap="round" stroke-linejoin="round"/>
<path d="M6.16568 15.2049C6.81163 15.2049 7.33527 14.6813 7.33527 14.0353C7.33527 13.3894 6.81163 12.8657 6.16568 12.8657C5.51974 12.8657 4.99609 13.3894 4.99609 14.0353C4.99609 14.6813 5.51974 15.2049 6.16568 15.2049Z" stroke="#AEBDDE" stroke-width="2.5" stroke-linecap="round" stroke-linejoin="round"/>
</svg>
